<svg id="visual" viewBox="0 0 1920 1080" width="1920" height="1080" xmlns="http://www.w3.org/2000/svg" xmlns:xlink="http://www.w3.org/1999/xlink" version="1.1"><rect width="1920" height="1080" fill="#1c1d1f"></rect><g><g transform="translate(1205 863)"><path d="M0 -34L29.4 -17L29.4 17L0 34L-29.4 17L-29.4 -17Z" stroke="#646464" fill="none" stroke-width="2"></path></g><g transform="translate(308 493)"><path d="M0 -19L16.5 -9.5L16.5 9.5L0 19L-16.5 9.5L-16.5 -9.5Z" stroke="#646464" fill="none" stroke-width="2"></path></g><g transform="translate(666 330)"><path d="M0 -4L3.5 -2L3.5 2L0 4L-3.5 2L-3.5 -2Z" stroke="#646464" fill="none" stroke-width="2"></path></g><g transform="translate(484 994)"><path d="M0 -20L17.3 -10L17.3 10L0 20L-17.3 10L-17.3 -10Z" stroke="#646464" fill="none" stroke-width="2"></path></g><g transform="translate(405 971)"><path d="M0 -23L19.9 -11.5L19.9 11.5L0 23L-19.9 11.5L-19.9 -11.5Z" stroke="#646464" fill="none" stroke-width="2"></path></g><g transform="translate(1177 525)"><path d="M0 -25L21.7 -12.5L21.7 12.5L0 25L-21.7 12.5L-21.7 -12.5Z" stroke="#646464" fill="none" stroke-width="2"></path></g><g transform="translate(1688 1025)"><path d="M0 -16L13.9 -8L13.9 8L0 16L-13.9 8L-13.9 -8Z" stroke="#646464" fill="none" stroke-width="2"></path></g><g transform="translate(1622 1011)"><path d="M0 -5L4.3 -2.5L4.3 2.5L0 5L-4.3 2.5L-4.3 -2.5Z" stroke="#646464" fill="none" stroke-width="2"></path></g><g transform="translate(1217 719)"><path d="M0 -9L7.8 -4.5L7.8 4.5L0 9L-7.8 4.5L-7.8 -4.5Z" stroke="#646464" fill="none" stroke-width="2"></path></g><g transform="translate(999 550)"><path d="M0 -19L16.5 -9.5L16.5 9.5L0 19L-16.5 9.5L-16.5 -9.5Z" stroke="#646464" fill="none" stroke-width="2"></path></g><g transform="translate(575 275)"><path d="M0 -17L14.7 -8.5L14.7 8.5L0 17L-14.7 8.5L-14.7 -8.5Z" stroke="#646464" fill="none" stroke-width="2"></path></g><g transform="translate(927 79)"><path d="M0 -5L4.3 -2.5L4.3 2.5L0 5L-4.3 2.5L-4.3 -2.5Z" stroke="#646464" fill="none" stroke-width="2"></path></g><g transform="translate(515 615)"><path d="M0 -24L20.8 -12L20.8 12L0 24L-20.8 12L-20.8 -12Z" stroke="#646464" fill="none" stroke-width="2"></path></g><g transform="translate(516 760)"><path d="M0 -31L26.8 -15.5L26.8 15.5L0 31L-26.8 15.5L-26.8 -15.5Z" stroke="#646464" fill="none" stroke-width="2"></path></g><g transform="translate(1715 399)"><path d="M0 -19L16.5 -9.5L16.5 9.5L0 19L-16.5 9.5L-16.5 -9.5Z" stroke="#646464" fill="none" stroke-width="2"></path></g><g transform="translate(1878 102)"><path d="M0 -30L26 -15L26 15L0 30L-26 15L-26 -15Z" stroke="#646464" fill="none" stroke-width="2"></path></g><g transform="translate(238 735)"><path d="M0 -18L15.6 -9L15.6 9L0 18L-15.6 9L-15.6 -9Z" stroke="#646464" fill="none" stroke-width="2"></path></g><g transform="translate(784 680)"><path d="M0 -31L26.8 -15.5L26.8 15.5L0 31L-26.8 15.5L-26.8 -15.5Z" stroke="#646464" fill="none" stroke-width="2"></path></g><g transform="translate(89 891)"><path d="M0 -10L8.7 -5L8.7 5L0 10L-8.7 5L-8.7 -5Z" stroke="#646464" fill="none" stroke-width="2"></path></g><g transform="translate(325 1026)"><path d="M0 -8L6.9 -4L6.9 4L0 8L-6.9 4L-6.9 -4Z" stroke="#646464" fill="none" stroke-width="2"></path></g><g transform="translate(1089 162)"><path d="M0 -32L27.7 -16L27.7 16L0 32L-27.7 16L-27.7 -16Z" stroke="#646464" fill="none" stroke-width="2"></path></g><g transform="translate(1193 66)"><path d="M0 -22L19.1 -11L19.1 11L0 22L-19.1 11L-19.1 -11Z" stroke="#646464" fill="none" stroke-width="2"></path></g><g transform="translate(920 842)"><path d="M0 -6L5.2 -3L5.2 3L0 6L-5.2 3L-5.2 -3Z" stroke="#646464" fill="none" stroke-width="2"></path></g><g transform="translate(1756 533)"><path d="M0 -14L12.1 -7L12.1 7L0 14L-12.1 7L-12.1 -7Z" stroke="#646464" fill="none" stroke-width="2"></path></g><g transform="translate(448 501)"><path d="M0 -17L14.7 -8.5L14.7 8.5L0 17L-14.7 8.5L-14.7 -8.5Z" stroke="#646464" fill="none" stroke-width="2"></path></g><g transform="translate(1303 200)"><path d="M0 -4L3.5 -2L3.5 2L0 4L-3.5 2L-3.5 -2Z" stroke="#646464" fill="none" stroke-width="2"></path></g><g transform="translate(1633 937)"><path d="M0 -30L26 -15L26 15L0 30L-26 15L-26 -15Z" stroke="#646464" fill="none" stroke-width="2"></path></g><g transform="translate(1723 284)"><path d="M0 -30L26 -15L26 15L0 30L-26 15L-26 -15Z" stroke="#646464" fill="none" stroke-width="2"></path></g><g transform="translate(413 739)"><path d="M0 -23L19.9 -11.5L19.9 11.5L0 23L-19.9 11.5L-19.9 -11.5Z" stroke="#646464" fill="none" stroke-width="2"></path></g><g transform="translate(1802 168)"><path d="M0 -17L14.7 -8.5L14.7 8.5L0 17L-14.7 8.5L-14.7 -8.5Z" stroke="#646464" fill="none" stroke-width="2"></path></g><g transform="translate(157 537)"><path d="M0 -4L3.5 -2L3.5 2L0 4L-3.5 2L-3.5 -2Z" stroke="#646464" fill="none" stroke-width="2"></path></g><g transform="translate(1575 666)"><path d="M0 -13L11.3 -6.5L11.3 6.5L0 13L-11.3 6.5L-11.3 -6.5Z" stroke="#646464" fill="none" stroke-width="2"></path></g><g transform="translate(1075 619)"><path d="M0 -6L5.2 -3L5.2 3L0 6L-5.2 3L-5.2 -3Z" stroke="#646464" fill="none" stroke-width="2"></path></g><g transform="translate(1380 1017)"><path d="M0 -11L9.5 -5.5L9.5 5.5L0 11L-9.5 5.5L-9.5 -5.5Z" stroke="#646464" fill="none" stroke-width="2"></path></g><g transform="translate(1086 509)"><path d="M0 -25L21.7 -12.5L21.7 12.5L0 25L-21.7 12.5L-21.7 -12.5Z" stroke="#646464" fill="none" stroke-width="2"></path></g><g transform="translate(1383 612)"><path d="M0 -8L6.9 -4L6.9 4L0 8L-6.9 4L-6.9 -4Z" stroke="#646464" fill="none" stroke-width="2"></path></g><g transform="translate(1847 691)"><path d="M0 -13L11.3 -6.5L11.3 6.5L0 13L-11.3 6.5L-11.3 -6.5Z" stroke="#646464" fill="none" stroke-width="2"></path></g><g transform="translate(822 899)"><path d="M0 -8L6.9 -4L6.9 4L0 8L-6.9 4L-6.9 -4Z" stroke="#646464" fill="none" stroke-width="2"></path></g><g transform="translate(1013 216)"><path d="M0 -17L14.7 -8.5L14.7 8.5L0 17L-14.7 8.5L-14.7 -8.5Z" stroke="#646464" fill="none" stroke-width="2"></path></g><g transform="translate(1505 923)"><path d="M0 -20L17.3 -10L17.3 10L0 20L-17.3 10L-17.3 -10Z" stroke="#646464" fill="none" stroke-width="2"></path></g><g transform="translate(1776 841)"><path d="M0 -29L25.1 -14.5L25.1 14.5L0 29L-25.1 14.5L-25.1 -14.5Z" stroke="#646464" fill="none" stroke-width="2"></path></g><g transform="translate(857 364)"><path d="M0 -12L10.4 -6L10.4 6L0 12L-10.4 6L-10.4 -6Z" stroke="#646464" fill="none" stroke-width="2"></path></g><g transform="translate(1608 273)"><path d="M0 -9L7.8 -4.5L7.8 4.5L0 9L-7.8 4.5L-7.8 -4.5Z" stroke="#646464" fill="none" stroke-width="2"></path></g></g></svg>